<?xml version="1.0" encoding="UTF-8" standalone="no"?>
<svg
   xmlns:dc="http://purl.org/dc/elements/1.1/"
   xmlns:cc="http://creativecommons.org/ns#"
   xmlns:rdf="http://www.w3.org/1999/02/22-rdf-syntax-ns#"
   xmlns:svg="http://www.w3.org/2000/svg"
   xmlns="http://www.w3.org/2000/svg"
   xmlns:sodipodi="http://sodipodi.sourceforge.net/DTD/sodipodi-0.dtd"
   xmlns:inkscape="http://www.inkscape.org/namespaces/inkscape"
   inkscape:version="1.0 (4035a4fb49, 2020-05-01)"
   sodipodi:docname="pencil.svg"
   id="svg8"
   version="1.1"
   viewBox="0 0 4.3391028 6.6145835"
   height="6.6145835mm"
   width="4.3391027mm">
  <defs
     id="defs2" />
  <sodipodi:namedview
     inkscape:snap-global="false"
     fit-margin-bottom="0"
     fit-margin-right="0"
     fit-margin-left="0"
     fit-margin-top="0"
     inkscape:object-paths="true"
     inkscape:snap-intersection-paths="true"
     inkscape:snap-smooth-nodes="true"
     inkscape:snap-midpoints="true"
     inkscape:snap-center="true"
     inkscape:snap-object-midpoints="true"
     inkscape:bbox-paths="true"
     inkscape:bbox-nodes="true"
     inkscape:snap-bbox-edge-midpoints="true"
     inkscape:snap-bbox-midpoints="true"
     inkscape:snap-bbox="true"
     inkscape:window-maximized="1"
     inkscape:window-y="-9"
     inkscape:window-x="1911"
     inkscape:window-height="1051"
     inkscape:window-width="1920"
     showgrid="false"
     inkscape:document-rotation="0"
     inkscape:current-layer="layer1"
     inkscape:document-units="mm"
     inkscape:cy="10.034806"
     inkscape:cx="8.9825261"
     inkscape:zoom="22.4"
     inkscape:pageshadow="2"
     inkscape:pageopacity="0.0"
     borderopacity="1.0"
     bordercolor="#666666"
     pagecolor="#ffffff"
     id="base" />
  <metadata
     id="metadata5">
    <rdf:RDF>
      <cc:Work
         rdf:about="">
        <dc:format>image/svg+xml</dc:format>
        <dc:type
           rdf:resource="http://purl.org/dc/dcmitype/StillImage" />
        <dc:title></dc:title>
      </cc:Work>
    </rdf:RDF>
  </metadata>
  <g
     transform="translate(-75.477797,-126.29447)"
     id="layer1"
     inkscape:groupmode="layer"
     inkscape:label="Layer 1">
    <path
       d="m 68.356373,127.55344 c -0.350189,0 -0.63211,0.28192 -0.63211,0.63211 v 4.041 c 0,0.35019 0.281921,0.63211 0.63211,0.63211 h 2.844493 c 0.35019,0 0.63211,-0.28192 0.63211,-0.63211 v -4.041 c 0,-0.35019 -0.28192,-0.63211 -0.63211,-0.63211 z m 0.375284,0.5418 c 0.145002,0 0.261764,0.22434 0.261764,0.503 v 3.21561 c 0,0.27867 -0.116762,0.50298 -0.261764,0.50298 -0.145003,0 -0.261733,-0.22431 -0.261733,-0.50298 v -3.21561 c 0,-0.27866 0.11673,-0.503 0.261733,-0.503 z m 1.046962,0 c 0.145003,0 0.261733,0.22434 0.261733,0.503 v 3.21561 c 0,0.27867 -0.11673,0.50298 -0.261733,0.50298 -0.145002,0 -0.261732,-0.22431 -0.261732,-0.50298 v -3.21561 c 0,-0.27866 0.11673,-0.503 0.261732,-0.503 z m 1.046963,0 c 0.145002,0 0.261733,0.22434 0.261733,0.503 v 3.21561 c 0,0.27867 -0.116731,0.50298 -0.261733,0.50298 -0.145003,0 -0.261764,-0.22431 -0.261764,-0.50298 v -3.21561 c 0,-0.27866 0.116761,-0.503 0.261764,-0.503 z"
       style="fill:#000000;fill-opacity:1;stroke:none;stroke-width:0.084554"
       id="rect833" />
    <rect
       style="fill:#000000;fill-opacity:1;stroke:none;stroke-width:0.0324847"
       id="rect833-1"
       width="5.5888414"
       height="0.57567114"
       x="-72.573036"
       y="-127.269"
       ry="0.068590604"
       transform="scale(-1)" />
    <rect
       transform="scale(-1)"
       ry="0.068590604"
       y="-126.81975"
       x="-70.829094"
       height="0.57567114"
       width="2.1009505"
       id="rect833-1-6"
       style="fill:#000000;fill-opacity:1;stroke:none;stroke-width:0.0199172" />
    <rect
       transform="rotate(30)"
       ry="0"
       y="71.310287"
       x="131.16977"
       height="4.685997"
       width="1.4679025"
       id="rect946"
       style="fill:#000000;fill-opacity:1;stroke:none;stroke-width:1.3283" />
    <rect
       transform="rotate(30)"
       style="fill:#000000;fill-opacity:1;stroke:none;stroke-width:0.509746"
       id="rect946-1"
       width="1.4679025"
       height="0.69009817"
       x="131.16977"
       y="70.101387"
       ry="0" />
    <path
       sodipodi:nodetypes="cccc"
       id="path963"
       d="m 75.477797,131.60816 1.271241,0.73394 -1.174812,0.56695 z"
       style="fill:#000000;fill-opacity:1;stroke:none;stroke-width:0.259393px;stroke-linecap:butt;stroke-linejoin:miter;stroke-opacity:1" />
  </g>
</svg>
